<?xml version="1.0" encoding="UTF-8"?>
<svg version="1.1" xmlns="http://www.w3.org/2000/svg" width="369" height="369">
<path d="M0 0 C0.80926437 -0.00570007 1.61852875 -0.01140015 2.45231628 -0.01727295 C4.16082477 -0.02666774 5.86935093 -0.03323479 7.57788086 -0.03710938 C10.12323078 -0.04670632 12.66773324 -0.07773664 15.21289062 -0.109375 C30.49001639 -0.20907665 45.3900621 1.54322152 60.04296875 6.015625 C61.35491211 6.40681519 61.35491211 6.40681519 62.69335938 6.8059082 C65.25491692 7.58312293 67.80654081 8.38553464 70.35546875 9.203125 C71.41628662 9.54102051 71.41628662 9.54102051 72.49853516 9.88574219 C117.3083872 24.51262241 154.66953564 58.93929629 176.125 100.453125 C187.40080971 123.04843299 195.4148901 148.41364299 195.55859375 173.84765625 C195.56429382 174.65692062 195.5699939 175.466185 195.5758667 176.29997253 C195.58526149 178.00848102 195.59182854 179.71700718 195.59570312 181.42553711 C195.60530007 183.97088703 195.63633039 186.51538949 195.66796875 189.06054688 C195.7676704 204.33767264 194.01537223 219.23771835 189.54296875 233.890625 C189.28217529 234.76525391 189.02138184 235.63988281 188.75268555 236.54101562 C187.97547082 239.10257317 187.17305911 241.65419706 186.35546875 244.203125 C186.13020508 244.91033691 185.90494141 245.61754883 185.67285156 246.34619141 C171.04597134 291.15604345 136.61929746 328.51719189 95.10546875 349.97265625 C72.51016076 361.24846596 47.14495076 369.26254635 21.7109375 369.40625 C20.90167313 369.41195007 20.09240875 369.41765015 19.25862122 369.42352295 C17.55011273 369.43291774 15.84158657 369.43948479 14.13305664 369.44335938 C11.58770672 369.45295632 9.04320426 369.48398664 6.49804688 369.515625 C-8.77907889 369.61532665 -23.6791246 367.86302848 -38.33203125 363.390625 C-39.20666016 363.12983154 -40.08128906 362.86903809 -40.98242188 362.6003418 C-43.54397942 361.82312707 -46.09560331 361.02071536 -48.64453125 360.203125 C-49.35174316 359.97786133 -50.05895508 359.75259766 -50.78759766 359.52050781 C-95.5974497 344.89362759 -132.95859814 310.46695371 -154.4140625 268.953125 C-165.68987221 246.35781701 -173.7039526 220.99260701 -173.84765625 195.55859375 C-173.85335632 194.74932938 -173.8590564 193.940065 -173.8649292 193.10627747 C-173.87432399 191.39776898 -173.88089104 189.68924282 -173.88476562 187.98071289 C-173.89436257 185.43536297 -173.92539289 182.89086051 -173.95703125 180.34570312 C-174.0567329 165.06857736 -172.30443473 150.16853165 -167.83203125 135.515625 C-167.44084106 134.20368164 -167.44084106 134.20368164 -167.04174805 132.86523438 C-166.26453332 130.30367683 -165.46212161 127.75205294 -164.64453125 125.203125 C-164.30663574 124.14230713 -164.30663574 124.14230713 -163.96191406 123.06005859 C-149.33503384 78.25020655 -114.90835996 40.88905811 -73.39453125 19.43359375 C-50.79922326 8.15778404 -25.43401326 0.14370365 0 0 Z " fill="#010101" transform="translate(173.64453125,-0.203125)"/>
<path d="M0 0 C0.93487747 0.01110306 1.86975494 0.02220612 2.83296204 0.03364563 C3.8938353 0.03402328 4.95470856 0.03440094 6.04772949 0.03479004 C7.19155594 0.06059647 8.33538239 0.08640289 9.51387024 0.11299133 C11.27208855 0.12360344 11.27208855 0.12360344 13.06582642 0.13442993 C16.81607921 0.16245779 20.56484862 0.2252166 24.31465149 0.28877258 C26.8543435 0.31384438 29.39405887 0.33665948 31.93379211 0.35713196 C38.16541953 0.41231219 44.39617956 0.49602371 50.62715149 0.60127258 C50.99052109 1.2469519 51.35389069 1.89263123 51.72827148 2.55787659 C53.40554995 5.53659191 55.08469948 8.5142486 56.76387024 11.49189758 C57.62087524 13.01484436 57.62087524 13.01484436 58.49519348 14.56855774 C62.46063974 21.5963582 66.50783099 28.5673215 70.72444153 35.44770813 C73.62715149 40.27739674 73.62715149 40.27739674 73.62715149 43.60127258 C74.85553238 43.55908096 76.08391327 43.51688934 77.34951782 43.47341919 C88.95591008 43.08737247 100.56099339 42.80304948 112.17236042 42.61684132 C118.14187448 42.51787699 124.10618839 42.38383934 130.07270813 42.16792297 C135.83741874 41.96062828 141.5971504 41.84772366 147.36530113 41.79860497 C149.55917514 41.76363608 151.75279132 41.69532749 153.94452858 41.5924015 C167.96014004 40.96072125 167.96014004 40.96072125 173.62715149 43.60127258 C178.99917549 48.65457787 182.32116847 55.66545316 184.62715149 62.60127258 C184.62715149 63.26127258 184.62715149 63.92127258 184.62715149 64.60127258 C144.03715149 64.60127258 103.44715149 64.60127258 61.62715149 64.60127258 C57.99715149 58.00127258 54.36715149 51.40127258 50.62715149 44.60127258 C48.34235008 40.72203352 48.34235008 40.72203352 45.97212219 36.8952179 C44.62715149 34.60127258 44.62715149 34.60127258 43.33491516 31.58076477 C41.72475862 28.11191653 40.20942608 25.43437236 37.62715149 22.60127258 C32.7887123 20.98475871 28.24804201 21.14188943 23.18965149 21.35127258 C21.23382141 21.36094055 21.23382141 21.36094055 19.23847961 21.37080383 C16.03004832 21.39430882 12.83280763 21.47270264 9.62715149 21.60127258 C9.34178528 22.50700012 9.05641907 23.41272766 8.7624054 24.34590149 C7.83092779 27.01693855 6.86147138 29.25002934 5.46308899 31.68721008 C5.10263489 32.32191223 4.74218079 32.95661438 4.37080383 33.61054993 C3.91914856 34.3912384 3.46749329 35.17192688 3.00215149 35.97627258 C0.83652649 39.75064758 0.83652649 39.75064758 -1.37284851 43.60127258 C7.86715149 43.60127258 17.10715149 43.60127258 26.62715149 43.60127258 C28.27715149 46.50939758 29.92715149 49.41752258 31.62715149 52.41377258 C32.1492218 53.32618713 32.67129211 54.23860168 33.20918274 55.17866516 C33.61523743 55.90207092 34.02129211 56.62547668 34.43965149 57.37080383 C34.8585968 58.10919495 35.27754211 58.84758606 35.70918274 59.60835266 C36.62715149 61.60127258 36.62715149 61.60127258 36.62715149 64.60127258 C11.87715149 64.60127258 -12.87284851 64.60127258 -38.37284851 64.60127258 C-36.82745095 60.73777868 -35.26078301 57.4770656 -33.20487976 53.90205383 C-32.56574646 52.78709534 -31.92661316 51.67213684 -31.26811218 50.52339172 C-30.57394885 49.32013271 -29.87969212 48.11692758 -29.18534851 46.91377258 C-28.47195422 45.67230384 -27.75882304 44.43068387 -27.04594421 43.18891907 C-25.195875 39.96834203 -23.34168728 36.75015685 -21.48625183 33.53266907 C-20.03416668 31.01376859 -18.58420861 28.49364685 -17.13421631 25.97354126 C-14.22111081 20.91126881 -11.30509717 15.85067182 -8.38456726 10.79267883 C-7.87369568 9.90781799 -7.3628241 9.02295715 -6.83647156 8.11128235 C-6.11197815 6.86882751 -6.11197815 6.86882751 -5.37284851 5.60127258 C-4.74612244 4.30368011 -4.74612244 4.30368011 -4.10673523 2.97987366 C-2.37284851 0.60127258 -2.37284851 0.60127258 0 0 Z " fill="#F8F8F8" transform="translate(135.3728485107422,199.3987274169922)"/>
<path d="M0 0 C0.66 0 1.32 0 2 0 C2.55945313 1.0209375 3.11890625 2.041875 3.6953125 3.09375 C9.7287341 14.05380251 15.98003938 24.87549266 22.30078125 35.671875 C26.01515748 42.01804544 29.70063824 48.3805912 33.375 54.75 C33.98738525 55.81138184 34.59977051 56.87276367 35.23071289 57.96630859 C38.61048152 63.83160169 41.97617942 69.70471609 45.328125 75.5859375 C45.68826691 76.21753784 46.04840881 76.84913818 46.41946411 77.49987793 C48.16010025 80.552944 49.89890426 83.60702521 51.63427734 86.66308594 C52.26285645 87.7668457 52.89143555 88.87060547 53.5390625 90.0078125 C54.12848633 91.04583008 54.71791016 92.08384766 55.32519531 93.15332031 C57.16369128 96.27822745 59.14528418 99.27231875 61.26318359 102.21435547 C62.34455236 104.83500861 61.83351783 106.31391678 61 109 C60.02481243 110.95399972 58.97190385 112.87010491 57.8671875 114.75390625 C57.22523438 115.85669922 56.58328125 116.95949219 55.921875 118.09570312 C55.23976532 119.25140951 54.55747304 120.40700815 53.875 121.5625 C53.22273438 122.67947266 52.57046875 123.79644531 51.8984375 124.94726562 C51.24875 126.05908203 50.5990625 127.17089844 49.9296875 128.31640625 C49.28354492 129.42258301 48.63740234 130.52875977 47.97167969 131.66845703 C46.64074851 133.91732861 45.28654603 136.15256671 43.91113281 138.37451172 C42.93805176 139.96610107 42.93805176 139.96610107 41.9453125 141.58984375 C41.35508301 142.53593506 40.76485352 143.48202637 40.15673828 144.45678711 C38.82158339 146.84894762 38.82158339 146.84894762 39.15942383 149.05834961 C40.13351135 151.30839843 41.24546449 153.37092573 42.50390625 155.4765625 C42.99697266 156.311875 43.49003906 157.1471875 43.99804688 158.0078125 C44.51431641 158.87148437 45.03058594 159.73515625 45.5625 160.625 C46.58856772 162.34401309 47.61090296 164.06526139 48.62890625 165.7890625 C49.08338135 166.54912598 49.53785645 167.30918945 50.00610352 168.09228516 C51 170 51 170 51 172 C58.92 172 66.84 172 75 172 C74.13375 170.411875 73.2675 168.82375 72.375 167.1875 C71.56482422 165.68703125 71.56482422 165.68703125 70.73828125 164.15625 C69.6032553 162.09534895 68.43509558 160.05225749 67.23046875 158.03125 C66.68003906 157.0928125 66.12960938 156.154375 65.5625 155.1875 C64.79099609 153.90939453 64.79099609 153.90939453 64.00390625 152.60546875 C62.66905851 149.14109739 62.91387261 147.55815331 64 144 C65.51687171 141.09173376 67.26182214 138.36440813 69.0625 135.625 C69.53494141 134.88894531 70.00738281 134.15289062 70.49414062 133.39453125 C71.65382463 131.59057835 72.82570507 129.7944761 74 128 C77.17440814 130.92629249 79.2534503 133.84345489 81.36328125 137.6015625 C81.99596924 138.71974365 82.62865723 139.8379248 83.28051758 140.98999023 C83.95787338 142.20164432 84.63520018 143.41331462 85.3125 144.625 C86.01576196 145.87160318 86.71979302 147.11777277 87.42456055 148.36352539 C88.51520953 150.29156179 89.60538104 152.21985076 90.69319153 154.14949036 C94.52102821 160.93836889 98.41291959 167.68965181 102.3125 174.4375 C102.94003174 175.52562988 103.56756348 176.61375977 104.21411133 177.73486328 C107.38667206 183.25575267 107.38667206 183.25575267 110.68823242 188.69946289 C112 191 112 191 112 193 C102.62085573 193.30191938 93.24339508 193.5325298 83.86044312 193.67355824 C79.50270387 193.74126814 75.14829958 193.83298339 70.79248047 193.98071289 C66.58409256 194.1225401 62.3788983 194.1997985 58.16830444 194.23340416 C56.56673872 194.25732998 54.96533825 194.30406485 53.36514282 194.37449074 C48.29426694 194.58867758 43.8634687 194.56132117 39 193 C35.17631029 189.08607327 33.2164349 185.01457089 31 180 C30.2364649 178.66926608 29.45451103 177.34855039 28.63891602 176.04907227 C26.9573874 173.16536286 25.28093875 170.27899721 23.61547852 167.38598633 C22.90492792 166.15549655 22.19030796 164.92734891 21.47192383 163.70141602 C20.41108599 161.89063039 19.36252184 160.07322745 18.31640625 158.25390625 C17.70224854 157.19502197 17.08809082 156.1361377 16.45532227 155.04516602 C14.9330018 151.85981068 14.15252025 149.52640879 14 146 C15.02880859 143.35375977 15.02880859 143.35375977 16.6484375 140.69140625 C17.23818359 139.70374268 17.82792969 138.7160791 18.43554688 137.69848633 C19.07556641 136.66361084 19.71558594 135.62873535 20.375 134.5625 C21.01244141 133.49733154 21.64988281 132.43216309 22.30664062 131.3347168 C25.14501143 126.60493416 28.04022098 121.91532631 31.0078125 117.265625 C31.43529785 116.58556396 31.8627832 115.90550293 32.30322266 115.20483398 C33.07974376 113.97700553 33.87288406 112.75947315 34.68505859 111.55493164 C35.87495736 109.77085204 35.87495736 109.77085204 37 107 C35.89999567 103.54324699 34.23830829 100.47155764 32.453125 97.32421875 C31.94539551 96.42662842 31.43766602 95.52903809 30.91455078 94.60424805 C30.09059814 93.16045776 30.09059814 93.16045776 29.25 91.6875 C28.67362793 90.67276611 28.09725586 89.65803223 27.50341797 88.61254883 C22.28374201 79.44675273 16.96875237 70.33739539 11.640625 61.234375 C7.6924029 54.48390984 3.78080559 47.71256028 -0.125 40.9375 C-0.7526123 39.84912842 -1.38022461 38.76075684 -2.02685547 37.6394043 C-3.1833414 35.63263514 -4.33643372 33.62390459 -5.48535156 31.61279297 C-6.4153754 30.00848686 -7.36606892 28.4156926 -8.35058594 26.84423828 C-11.06438057 22.46943419 -11.06438057 22.46943419 -10.73706055 20.08276367 C-9.92512892 17.78843155 -8.91104404 15.79172361 -7.71484375 13.671875 C-7.04291992 12.47304688 -7.04291992 12.47304688 -6.35742188 11.25 C-5.65456055 10.0125 -5.65456055 10.0125 -4.9375 8.75 C-4.46505859 7.90953125 -3.99261719 7.0690625 -3.50585938 6.203125 C-2.34142039 4.13301124 -1.1726855 2.06544986 0 0 Z " fill="#F8F8F8" transform="translate(183,28)"/>
<path d="M0 0 C3.46028159 3.32044953 5.73839089 6.74004941 8 10.9375 C8.79467429 12.38070351 9.59029602 13.82338562 10.38671875 15.265625 C10.80872559 16.03326172 11.23073242 16.80089844 11.66552734 17.59179688 C14.00549577 21.81452804 16.41287529 25.99848988 18.8125 30.1875 C19.30830566 31.06011475 19.80411133 31.93272949 20.31494141 32.83178711 C22.99006164 37.53316315 25.71063164 42.19975426 28.50390625 46.83203125 C29.06811279 47.78118408 29.63231934 48.73033691 30.21362305 49.70825195 C31.30054173 51.53469063 32.40177115 53.35270737 33.51879883 55.16088867 C34.00501709 55.98435791 34.49123535 56.80782715 34.9921875 57.65625 C35.42901855 58.37619141 35.86584961 59.09613281 36.31591797 59.83789062 C37.2778909 62.87830185 36.42580971 64.20202703 35 67 C33.11765499 70.6160353 31.07712847 74.14372396 29.0625 77.6875 C28.54365234 78.61111328 28.02480469 79.53472656 27.49023438 80.48632812 C26.35534203 82.49027001 25.1875716 84.47581931 23.99389648 86.4453125 C22.41095032 89.12505438 21.20164269 91.85362489 20.00805664 94.7265625 C17.71820156 99.79618366 15.42843578 104.48403829 11 108 C2.87311956 111.00337323 -6.19025667 110.01434076 -14.6875 109.625 C-17.04609082 109.58287941 -19.40484291 109.54894719 -21.76367188 109.5234375 C-27.51437192 109.44351973 -33.25486264 109.26190933 -39 109 C-39.30245636 109.55185471 -39.60491272 110.10370941 -39.91653442 110.67228699 C-50.76178269 130.45112377 -50.76178269 130.45112377 -55.875 139.3125 C-60.15982198 146.77236517 -64.4043188 154.2536681 -68.625 161.75 C-72.99522019 169.51122363 -77.43348219 177.22545012 -82.01806641 184.86230469 C-83.62543518 187.55735128 -85.00405256 190.01215769 -86 193 C-94.25 193 -102.5 193 -111 193 C-109.56867617 189.42169044 -108.19002658 186.3869441 -106.3125 183.078125 C-105.78414551 182.14444092 -105.25579102 181.21075684 -104.71142578 180.2487793 C-104.14665527 179.25918213 -103.58188477 178.26958496 -103 177.25 C-102.41331543 176.21721924 -101.82663086 175.18443848 -101.22216797 174.12036133 C-97.51495595 167.61027081 -93.75677692 161.13272469 -89.94018555 154.6862793 C-84.20860697 144.99672287 -78.61715797 135.22558924 -72.99951172 125.46972656 C-70.9625572 121.93366858 -68.92102964 118.40026216 -66.87890625 114.8671875 C-66.20139825 113.69459034 -65.52390782 112.52198304 -64.84643555 111.34936523 C-63.5684641 109.13764375 -62.29001088 106.92620054 -61.01098633 104.71508789 C-60.42728271 103.70438232 -59.8435791 102.69367676 -59.2421875 101.65234375 C-58.7354248 100.77570068 -58.22866211 99.89905762 -57.70654297 98.99584961 C-55.43906384 95.01527215 -53.22477784 91.00460011 -51 87 C-34.5 87 -18 87 -1 87 C-0.34 85.35 0.32 83.7 1 82 C1.77203474 80.64800562 2.57839874 79.31503121 3.41796875 78.00390625 C3.86720703 77.28009766 4.31644531 76.55628906 4.77929688 75.81054688 C5.71966568 74.30934786 6.67026418 72.81450949 7.63085938 71.32617188 C9.63611538 68.06146419 10.97529028 65.86596322 11.0859375 61.98828125 C9.61227971 57.93307187 7.62714418 54.33364695 5.4375 50.625 C5.01275391 49.88894531 4.58800781 49.15289062 4.15039062 48.39453125 C3.10843859 46.59160301 2.05533146 44.79512947 1 43 C0.34 43 -0.32 43 -1 43 C-5.29 50.59 -9.58 58.18 -14 66 C-21.59 66 -29.18 66 -37 66 C-35.87520985 60.37604924 -35.87520985 60.37604924 -34.09375 57.375 C-33.68809814 56.68293457 -33.28244629 55.99086914 -32.86450195 55.27783203 C-32.41421631 54.52614746 -31.96393066 53.77446289 -31.5 53 C-31.0258667 52.19546387 -30.5517334 51.39092773 -30.06323242 50.56201172 C-28.9893062 48.73997042 -27.91253679 46.91960304 -26.83349609 45.10058594 C-24.79921818 41.66046217 -22.78289296 38.210201 -20.76953125 34.7578125 C-19.28418147 32.21335048 -17.79834828 29.66917093 -16.3125 27.125 C-15.95945801 26.52010742 -15.60641602 25.91521484 -15.24267578 25.29199219 C-10.27585298 16.78864392 -5.19573116 8.36572758 0 0 Z " fill="#F7F7F7" transform="translate(159,71)"/>
<path d="M0 0 C0.66 0.33 1.32 0.66 2 1 C1.625 2.9375 1.625 2.9375 1 5 C0.34 5.33 -0.32 5.66 -1 6 C-1.30010986 6.8355542 -1.60021973 7.6711084 -1.90942383 8.53198242 C-4 11 -4 11 -6.24008179 11.44302368 C-9.32077938 11.58099865 -12.36617964 11.56060536 -15.44921875 11.48828125 C-17.14084892 11.47766914 -17.14084892 11.47766914 -18.86665344 11.46684265 C-22.47427259 11.43881852 -26.08034871 11.37606108 -29.6875 11.3125 C-32.13083699 11.28742769 -34.57419826 11.26461267 -37.01757812 11.24414062 C-43.01224663 11.18896549 -49.0060131 11.10525816 -55 11 C-55 10.67 -55 10.34 -55 10 C-54.38469925 10.00745743 -53.7693985 10.01491486 -53.13545227 10.02259827 C-46.72714116 10.09144682 -40.32094674 10.09747781 -33.91235352 10.06713867 C-31.52136953 10.06405772 -29.13030911 10.07695932 -26.73950195 10.10620117 C-23.30014294 10.14548772 -19.86515342 10.12716642 -16.42578125 10.09765625 C-15.35789871 10.12223404 -14.29001617 10.14681183 -13.18977356 10.1721344 C-10.19301726 10.11421244 -7.82868229 9.99897728 -5 9 C-2.59732955 6.25478817 -1.22568506 3.41843306 0 0 Z " fill="#3F3F3F" transform="translate(175,169)"/>
<path d="M0 0 C0.625 1.8125 0.625 1.8125 1 4 C0.01 5.485 0.01 5.485 -1 7 C-1.63292383 9.11280345 -1.63292383 9.11280345 -2 11 C-2.99 11 -3.98 11 -5 11 C-3.77472971 6.94718288 -2.30119506 3.55639236 0 0 Z " fill="#2C2C2C" transform="translate(237,147)"/>
<path d="M0 0 C0.66 0.33 1.32 0.66 2 1 C0.92598892 3.91517292 0.22189824 5.77810176 -2 8 C-2.66 6.35 -3.32 4.7 -4 3 C-2.68 2.01 -1.36 1.02 0 0 Z " fill="#1C1C1C" transform="translate(219,132)"/>
<path d="M0 0 C-1.75 3.875 -1.75 3.875 -4 5 C-6 3 -6 3 -7 0 C-2.25 -1.125 -2.25 -1.125 0 0 Z " fill="#171717" transform="translate(165,69)"/>
<path d="M0 0 C0.66 0.33 1.32 0.66 2 1 C1.625 2.9375 1.625 2.9375 1 5 C0.01 5.495 0.01 5.495 -1 6 C-2.13350534 8.01669827 -2.13350534 8.01669827 -3 10 C-4 7 -4 7 -3.22265625 5.17578125 C-2.1484375 3.45052083 -1.07421875 1.72526042 0 0 Z " fill="#222222" transform="translate(175,169)"/>
<path d="M0 0 C2.50037734 2.17424117 3.43628586 3.73045798 4 7 C3.01 7.495 3.01 7.495 2 8 C2 7.34 2 6.68 2 6 C1.34 6 0.68 6 0 6 C-0.38218767 4.34385343 -0.71395102 2.67542976 -1 1 C-0.67 0.67 -0.34 0.34 0 0 Z " fill="#D3D3D3" transform="translate(216,84)"/>
<path d="M0 0 C0.33 0 0.66 0 1 0 C1 1.65 1 3.3 1 5 C0.34 5 -0.32 5 -1 5 C-1.66 6.32 -2.32 7.64 -3 9 C-3.33 8.34 -3.66 7.68 -4 7 C-3.22265625 5.2734375 -3.22265625 5.2734375 -2.0625 3.375 C-1.381875 2.26125 -0.70125 1.1475 0 0 Z " fill="#D9D9D9" transform="translate(180,34)"/>
<path d="M0 0 C2.35953094 2.35953094 2.49141413 3.77895617 3 7 C2.01 7.495 2.01 7.495 1 8 C0.01 6.02 -0.98 4.04 -2 2 C-1.34 2 -0.68 2 0 2 C0 1.34 0 0.68 0 0 Z " fill="#131313" transform="translate(192,36)"/>
</svg>
