<?xml version="1.0" encoding="UTF-8"?>
<svg version="1.1" xmlns="http://www.w3.org/2000/svg" width="451" height="451">
<path d="M0 0 C0.94604095 0.00054382 1.89208191 0.00108765 2.86679077 0.00164795 C18.2955909 0.0423267 33.09224188 0.9266048 48.1875 4.375 C49.13238281 4.58930664 50.07726562 4.80361328 51.05078125 5.02441406 C91.61943912 14.55610625 128.86626273 34.57078153 158.59619141 63.81445312 C160.03080942 65.22133842 161.48868721 66.60441026 162.94921875 67.984375 C169.78631102 74.55313555 175.50927315 81.81300121 181.1875 89.375 C181.60499512 89.9210791 182.02249023 90.4671582 182.45263672 91.02978516 C211.79428465 129.51960257 226.66678866 177.05301512 226.5625 225.1875 C226.56168427 226.60656143 226.56168427 226.60656143 226.56085205 228.05429077 C226.5201733 243.4830909 225.6358952 258.27974188 222.1875 273.375 C221.86604004 274.79232422 221.86604004 274.79232422 221.53808594 276.23828125 C212.00639375 316.80693912 191.99171847 354.05376273 162.74804688 383.78369141 C161.34116158 385.21830942 159.95808974 386.67618721 158.578125 388.13671875 C152.00936445 394.97381102 144.74949879 400.69677315 137.1875 406.375 C136.6414209 406.79249512 136.0953418 407.20999023 135.53271484 407.64013672 C97.04289743 436.98178465 49.50948488 451.85428866 1.375 451.75 C0.42895905 451.74945618 -0.51708191 451.74891235 -1.49179077 451.74835205 C-16.9205909 451.7076733 -31.71724188 450.8233952 -46.8125 447.375 C-48.22982422 447.05354004 -48.22982422 447.05354004 -49.67578125 446.72558594 C-90.24443912 437.19389375 -127.49126273 417.17921847 -157.22119141 387.93554688 C-158.65580942 386.52866158 -160.11368721 385.14558974 -161.57421875 383.765625 C-168.41131102 377.19686445 -174.13427315 369.93699879 -179.8125 362.375 C-180.22999512 361.8289209 -180.64749023 361.2828418 -181.07763672 360.72021484 C-210.41928465 322.23039743 -225.29178866 274.69698488 -225.1875 226.5625 C-225.18695618 225.61645905 -225.18641235 224.67041809 -225.18585205 223.69570923 C-225.1451733 208.2669091 -224.2608952 193.47025812 -220.8125 178.375 C-220.49104004 176.95767578 -220.49104004 176.95767578 -220.16308594 175.51171875 C-210.63139375 134.94306088 -190.61671847 97.69623727 -161.37304688 67.96630859 C-159.96616158 66.53169058 -158.58308974 65.07381279 -157.203125 63.61328125 C-150.63436445 56.77618898 -143.37449879 51.05322685 -135.8125 45.375 C-135.2664209 44.95750488 -134.7203418 44.54000977 -134.15771484 44.10986328 C-95.66789743 14.76821535 -48.13448488 -0.10428866 0 0 Z " fill="#000000" transform="translate(224.8125,-0.375)"/>
<path d="M0 0 C3.71304094 1.23768031 3.94843182 2.17521257 5.78515625 5.53125 C6.31036865 6.47798584 6.83558105 7.42472168 7.37670898 8.40014648 C7.93302002 9.42309814 8.48933105 10.4460498 9.0625 11.5 C10.24101829 13.62695035 11.42071381 15.75324882 12.6015625 17.87890625 C13.18196289 18.92836426 13.76236328 19.97782227 14.36035156 21.05908203 C16.49466181 24.88723885 18.70001685 28.66898396 20.9375 32.4375 C21.74365355 33.79938212 22.54963819 35.16136424 23.35546875 36.5234375 C23.98461182 37.58643066 23.98461182 37.58643066 24.62646484 38.67089844 C27.35133908 43.2914637 30.04892332 47.92799761 32.75 52.5625 C33.33273682 53.5620874 33.91547363 54.5616748 34.51586914 55.59155273 C35.71867826 57.65489486 36.92139482 59.71829095 38.12402344 61.78173828 C41.3729478 67.35530946 44.62410733 72.92757672 47.875 78.5 C49.05990551 80.53124435 50.24480227 82.56249381 51.4296875 84.59375 C51.92710449 85.44646484 52.42452148 86.29917969 52.93701172 87.17773438 C53.28779785 87.77908203 53.63858398 88.38042969 54 89 C49.9696568 90.34344773 48.30123504 89.20581529 44.375 87.6875 C40.37524329 86.17758671 36.45858831 84.75206548 32.25 83.9375 C20.0235522 81.38747737 20.0235522 81.38747737 16.45922852 77.18212891 C16.02022217 76.47491699 15.58121582 75.76770508 15.12890625 75.0390625 C14.62415771 74.23879639 14.11940918 73.43853027 13.59936523 72.61401367 C13.07157471 71.75138916 12.54378418 70.88876465 12 70 C11.44062744 69.10837158 10.88125488 68.21674316 10.30493164 67.2980957 C8.56517004 64.51912957 6.84288485 61.73003453 5.125 58.9375 C4.53203125 57.97650391 3.9390625 57.01550781 3.328125 56.02539062 C1.88397817 53.68447519 0.44129805 51.34267009 -1 49 C-3.32027571 51.14663252 -4.85842322 53.24921877 -6.390625 56.0078125 C-6.84477783 56.81629639 -7.29893066 57.62478027 -7.7668457 58.45776367 C-8.25628662 59.33795166 -8.74572754 60.21813965 -9.25 61.125 C-13.8125065 69.22462785 -18.50242884 77.23250316 -23.3125 85.1875 C-29.42410234 95.30599432 -35.37728226 105.50606729 -41.25317383 115.76245117 C-41.84638428 116.79732666 -42.43959473 117.83220215 -43.05078125 118.8984375 C-43.57325439 119.81286621 -44.09572754 120.72729492 -44.6340332 121.66943359 C-45.69664373 123.48242377 -46.83432759 125.25149139 -48 127 C-47.5966631 133.37555344 -46.0417698 139.48799035 -44.5625 145.6875 C-42.6753956 153.76390174 -41.04096824 161.76547509 -40 170 C-39.0821875 169.73445312 -38.164375 169.46890625 -37.21875 169.1953125 C-30.8359855 167.35825633 -24.45969828 165.55032759 -18 164 C-17.58448224 158.04424544 -18.86550023 152.84837409 -20.34375 147.0859375 C-21.45363166 141.86685114 -21.11848963 138.67239007 -18.9375 133.8125 C-16.68310149 128.62035839 -14.54922255 123.40048019 -12.5 118.125 C-12.20182373 117.3623584 -11.90364746 116.5997168 -11.59643555 115.81396484 C-10.17631217 112.15401311 -8.80494907 108.4885594 -7.546875 104.76953125 C-7.21526367 103.7957251 -7.21526367 103.7957251 -6.87695312 102.80224609 C-6.28703469 101.04765224 -5.71327842 99.2876481 -5.140625 97.52734375 C-4.76421875 96.69332031 -4.3878125 95.85929687 -4 95 C-0.0088662 93.66962207 1.70760811 94.66921065 5.6875 96 C7.12420178 96.46989553 8.56176105 96.93717439 10 97.40234375 C10.79148438 97.65870605 11.58296875 97.91506836 12.3984375 98.17919922 C17.30253232 99.72645586 22.24721898 101.13597275 27.1875 102.5625 C42.75135807 107.07289164 42.75135807 107.07289164 48.859375 109.08984375 C51.3423443 109.80941072 53.66781747 110.31492874 56.203125 110.75390625 C62.45311699 111.96794822 67.97604458 113.08796687 71.91796875 118.43359375 C74.15244827 122.00497446 75.99258282 125.75358153 77.79785156 129.55615234 C79.89074915 133.81080402 82.34203001 137.85576677 84.75 141.9375 C85.62086679 143.44599442 86.4906847 144.95509492 87.359375 146.46484375 C89.16816219 149.58889697 91.01048117 152.69015566 92.875 155.78125 C96.41488578 161.66157021 99.83113736 167.61126052 103.25 173.5625 C107.49185958 180.93373661 111.73966356 188.30085386 116.0625 195.625 C121.88106335 205.48334391 127.65362818 215.36833468 133.40820312 225.26416016 C134.40548537 226.97820077 135.40399023 228.69153125 136.40429688 230.40380859 C137.56535475 232.39182949 138.72119219 234.38276566 139.875 236.375 C140.49117188 237.43460938 141.10734375 238.49421875 141.7421875 239.5859375 C143 242 143 242 143 244 C109.67 244 76.34 244 42 244 C48.60759494 236.29113924 48.60759494 236.29113924 51.140625 233.359375 C51.65367187 232.76382813 52.16671875 232.16828125 52.6953125 231.5546875 C53.74615394 230.33486654 54.79827185 229.11614425 55.8515625 227.8984375 C56.35945312 227.30804688 56.86734375 226.71765625 57.390625 226.109375 C57.84469727 225.58311523 58.29876953 225.05685547 58.76660156 224.51464844 C60.1988639 222.80490312 60.1988639 222.80490312 62 220 C64.76628915 219.7332384 67.30619631 219.65195811 70.0703125 219.70703125 C71.26465408 219.71339851 71.26465408 219.71339851 72.48312378 219.71989441 C75.03075729 219.73671166 77.57760489 219.77436821 80.125 219.8125 C81.85024901 219.82754295 83.57551039 219.84123204 85.30078125 219.85351562 C89.53415782 219.88662499 93.76694559 219.93842715 98 220 C91.4686338 208.31731284 84.88723655 196.67570944 77.9597168 185.22265625 C74.68122504 179.80235859 71.42971888 174.36696255 68.19921875 168.91796875 C67.77719177 168.20616959 67.35516479 167.49437042 66.92034912 166.76100159 C65.21640483 163.88624709 63.51298288 161.01118534 61.81097412 158.13528442 C60.61566918 156.11575544 59.41938197 154.09681234 58.22265625 152.078125 C57.66146088 151.13017311 57.66146088 151.13017311 57.08892822 150.16307068 C55.09005113 146.79685204 53.04538999 143.46826506 50.93359375 140.171875 C49 137 49 137 49 135 C48.33097656 134.91363281 47.66195312 134.82726562 46.97265625 134.73828125 C39.08791272 133.58467448 31.67290748 131.55318604 24.078125 129.21875 C20.08451124 127.99708306 16.0586502 126.98281216 12 126 C11.62875 127.423125 11.62875 127.423125 11.25 128.875 C9.87513627 133.72687419 7.92865028 138.34689714 6 143 C6.56164856 143.23633148 7.12329712 143.47266296 7.70196533 143.71615601 C10.53961098 145.30146469 12.47507012 147.23568878 14.76855469 149.54150391 C15.22755661 150.00021378 15.68655853 150.45892365 16.1594696 150.93153381 C17.66839675 152.4418491 19.17012454 153.95911388 20.671875 155.4765625 C21.71947224 156.5278917 22.76751328 157.57877885 23.815979 158.62924194 C26.5691252 161.39001016 29.31621127 164.15673249 32.06207275 166.92474365 C34.86716916 169.75032928 37.67796321 172.57023445 40.48828125 175.390625 C45.99777532 180.92154374 51.50087877 186.45876589 57 192 C55.63879796 194.81541194 54.31110449 196.9679457 52.1640625 199.25 C51.60017822 199.85255615 51.03629395 200.4551123 50.45532227 201.07592773 C49.54931274 202.02834351 49.54931274 202.02834351 48.625 203 C48.00230225 203.66136963 47.37960449 204.32273926 46.73803711 205.00415039 C42.2608392 209.73618055 37.68216749 214.35703568 33.04711914 218.93383789 C30.44050063 221.51856308 27.93972873 224.14076032 25.5625 226.9375 C25.03597336 227.50882156 24.50944672 228.08014313 23.96696472 228.66877747 C21.86359279 231.0465023 21.86359279 231.0465023 20.02192688 234.19584656 C16.27148202 239.59281929 12.24622861 243.28347002 5.69350815 244.7298317 C-3.84410926 245.79094113 -13.43215439 245.53523371 -23.01134324 245.31812119 C-27.23643074 245.23627056 -31.4616657 245.22917288 -35.68742371 245.21379089 C-43.67087326 245.17355213 -51.65197955 245.06711194 -59.63440198 244.93624753 C-68.72972368 244.79040882 -77.82516358 244.71933279 -86.92136538 244.65420687 C-105.61556696 244.51870418 -124.30759443 244.29038309 -143 244 C-141.70849663 240.70528262 -140.33923502 237.68785108 -138.5234375 234.6484375 C-138.02618164 233.81175537 -137.52892578 232.97507324 -137.01660156 232.11303711 C-136.47487305 231.20948486 -135.93314453 230.30593262 -135.375 229.375 C-134.19010401 227.38411468 -133.00520818 225.39322926 -131.8203125 223.40234375 C-130.88300293 221.83202393 -130.88300293 221.83202393 -129.92675781 220.22998047 C-126.69080969 214.80529805 -123.47100772 209.37106166 -120.25 203.9375 C-119.59225586 202.83019531 -118.93451172 201.72289062 -118.25683594 200.58203125 C-114.56625663 194.36183409 -110.90396679 188.12653908 -107.2734375 181.87109375 C-106.48933169 180.52282487 -105.70515276 179.17459851 -104.92089844 177.82641602 C-103.41058541 175.22992278 -101.90717979 172.62958793 -100.40722656 170.02709961 C-99.722274 168.84863931 -99.03706623 167.67032728 -98.3515625 166.4921875 C-97.75166504 165.45433105 -97.15176758 164.41647461 -96.53369141 163.34716797 C-95 161 -95 161 -93 160 C-90.51468967 168.89741099 -88.83956561 177.79441001 -88 187 C-87.86078125 188.22460938 -87.7215625 189.44921875 -87.578125 190.7109375 C-87.6457934 196.72396624 -91.09191617 201.75876301 -93.9375 206.875 C-94.50146484 207.91914063 -95.06542969 208.96328125 -95.64648438 210.0390625 C-96.68513657 211.95963615 -97.73056249 213.87657307 -98.78491211 215.78857422 C-99.54872801 217.17869767 -100.29065411 218.58130822 -101 220 C-67.67 220 -34.34 220 0 220 C0.66 218.68 1.32 217.36 2 216 C3.3488442 214.53852319 4.75063768 213.1250352 6.1875 211.75 C11.89077708 206.1750925 17.08975668 200.28511145 22 194 C20.31821312 190.0275034 17.67527842 186.91241081 14.875 183.6875 C14.42640625 183.12482422 13.9778125 182.56214844 13.515625 181.98242188 C11.96670219 180.10960277 11.96670219 180.10960277 9 178 C5.81538468 177.88044106 4.01115182 178.1654255 1 179 C-0.09054688 179.29704834 -1.18109375 179.59409668 -2.3046875 179.90014648 C-6.1986128 181.00974154 -10.06807595 182.18368528 -13.9375 183.375 C-15.27001017 183.77921368 -16.60269152 184.18286349 -17.93554688 184.5859375 C-25.99565877 187.03176671 -34.00427112 189.58997024 -41.94921875 192.38671875 C-43.18285156 192.81597656 -44.41648437 193.24523437 -45.6875 193.6875 C-46.92886719 194.12449219 -48.17023438 194.56148437 -49.44921875 195.01171875 C-52.83650413 195.95449455 -55.50974091 196.1983711 -59 196 C-61.26361533 186.07226575 -63.38660332 176.14987533 -65.21875 166.1328125 C-66.06984556 161.5515247 -67.03180929 156.99524749 -68 152.4375 C-68.25172974 151.24326416 -68.25172974 151.24326416 -68.50854492 150.02490234 C-69.30800727 146.23666881 -70.11981657 142.45194711 -70.95703125 138.671875 C-71.24246615 137.34380986 -71.52763752 136.01568804 -71.8125 134.6875 C-72.06644531 133.53636719 -72.32039063 132.38523438 -72.58203125 131.19921875 C-73.52290804 123.99755431 -70.85500005 119.4635044 -67.25 113.5 C-66.75902832 112.67032715 -66.26805664 111.8406543 -65.76220703 110.98583984 C-64.71361188 109.21573729 -63.66092729 107.4480519 -62.60449219 105.68261719 C-60.53555442 102.22347413 -58.48880619 98.75145984 -56.44140625 95.27954102 C-54.83104438 92.55050975 -53.21636863 89.82405974 -51.6015625 87.09765625 C-47.83745413 80.7342184 -44.10267034 74.35374582 -40.36813354 67.97293091 C-30.55838094 51.21209348 -30.55838094 51.21209348 -26.3125 44.1875 C-22.4491978 37.79125452 -18.69258677 31.33528494 -14.9375 24.875 C-10.07353886 16.50862254 -5.15226722 8.19242489 0 0 Z " fill="#FAFAFA" transform="translate(224,80)"/>
<path d="M0 0 C3.3480027 3.79440306 4.3076893 5.92306791 6 11 C-27.33 11 -60.66 11 -95 11 C-93.35 9.02 -91.7 7.04 -90 5 C-89.67 6.32 -89.34 7.64 -89 9 C-59.63 9 -30.26 9 0 9 C-0.495 5.535 -0.495 5.535 -1 2 C-0.67 1.34 -0.34 0.68 0 0 Z " fill="#EEEEEE" transform="translate(361,313)"/>
<path d="M0 0 C0.33 0.99 0.66 1.98 1 3 C1.66 3.33 2.32 3.66 3 4 C2.31292969 4.49628906 1.62585938 4.99257813 0.91796875 5.50390625 C-5.03033381 9.65397636 -5.03033381 9.65397636 -8.625 15.6875 C-10.35174699 19.84739047 -12.39188443 21.0044749 -16.16015625 23.25 C-16.76730469 23.4975 -17.37445313 23.745 -18 24 C-18.66 23.67 -19.32 23.34 -20 23 C-19.25556641 22.27296875 -19.25556641 22.27296875 -18.49609375 21.53125 C-8.07906554 11.6717631 -8.07906554 11.6717631 0 0 Z " fill="#F0F0F0" transform="translate(247,272)"/>
<path d="M0 0 C5.66129431 4.69766975 10.85228904 9.74723372 16 15 C14.68 15.33 13.36 15.66 12 16 C11.7525 15.38125 11.505 14.7625 11.25 14.125 C9.74997691 11.57496075 8.6302751 11.23777652 6 10 C3.75 8 3.75 8 2 6 C2 5.34 2 4.68 2 4 C1.34 4 0.68 4 0 4 C-0.33 3.01 -0.66 2.02 -1 1 C-0.67 0.67 -0.34 0.34 0 0 Z " fill="#DDDDDD" transform="translate(235,227)"/>
<path d="M0 0 C0.33 0.66 0.66 1.32 1 2 C0.38125 2.7425 -0.2375 3.485 -0.875 4.25 C-3.01436507 6.78147377 -3.01436507 6.78147377 -3.9375 9.1875 C-5 11 -5 11 -7.1875 11.8125 C-11.3531995 13.5713509 -13.9598339 16.72327919 -17 20 C-17.66 19.67 -18.32 19.34 -19 19 C-12.73 12.73 -6.46 6.46 0 0 Z " fill="#1B1B1B" transform="translate(271,284)"/>
<path d="M0 0 C2.2474649 2.2474649 3.02484536 3.9995242 4 7 C3.67 7.66 3.34 8.32 3 9 C3 10.32 3 11.64 3 13 C1 12 -1 11 -3 10 C-2.49287967 6.28111761 -1.88391785 3.26545761 0 0 Z " fill="#141414" transform="translate(233,213)"/>
<path d="M0 0 C2.36300349 2.36300349 2.51433444 3.5798498 3.125 6.8125 C3.29257813 7.66457031 3.46015625 8.51664063 3.6328125 9.39453125 C3.995552 11.96843811 4.06523407 14.40461588 4 17 C1.87491756 13.81237635 1.4979837 11.73487777 1 8 C-0.98 8.66 -2.96 9.32 -5 10 C-3.66511872 6.40608886 -2.03977277 3.24509304 0 0 Z " fill="#CBCBCB" transform="translate(130,240)"/>
<path d="M0 0 C1.24674659 3.74023976 0.76679965 6.16600177 0 10 C-1.80238879 11.80238879 -3.54887809 13.16402532 -5.625 14.625 C-6.25664062 15.07101563 -6.88828125 15.51703125 -7.5390625 15.9765625 C-8.02117187 16.31429687 -8.50328125 16.65203125 -9 17 C-7.51481201 12.95698825 -5.57122002 9.38853744 -3.375 5.6875 C-2.74335938 4.61886719 -2.11171875 3.55023438 -1.4609375 2.44921875 C-0.97882813 1.64097656 -0.49671875 0.83273438 0 0 Z " fill="#181818" transform="translate(196,171)"/>
<path d="M0 0 C2.38564077 0.57584432 4.66682784 1.22227595 7 2 C6.7525 2.5775 6.505 3.155 6.25 3.75 C6.1675 4.4925 6.085 5.235 6 6 C7.85432087 8.27144074 7.85432087 8.27144074 10 10 C9.67 10.99 9.34 11.98 9 13 C5.7 9.7 2.4 6.4 -1 3 C-0.67 2.01 -0.34 1.02 0 0 Z " fill="#0C0C0C" transform="translate(254,242)"/>
<path d="M0 0 C1.32 0.33 2.64 0.66 4 1 C3.46324097 4.85103301 1.88399077 6.31797587 -1.0625 8.75 C-2.16271484 9.67039062 -2.16271484 9.67039062 -3.28515625 10.609375 C-3.85105469 11.06828125 -4.41695313 11.5271875 -5 12 C-5.33 11.34 -5.66 10.68 -6 10 C-4.78515625 7.6171875 -4.78515625 7.6171875 -3.0625 4.875 C-2.21365234 3.50988281 -2.21365234 3.50988281 -1.34765625 2.1171875 C-0.90292969 1.41851562 -0.45820312 0.71984375 0 0 Z " fill="#E9E9E9" transform="translate(105,282)"/>
<path d="M0 0 C-0.33 1.32 -0.66 2.64 -1 4 C-1.66 4 -2.32 4 -3 4 C-3.33 5.65 -3.66 7.3 -4 9 C-4.99 9 -5.98 9 -7 9 C-7.99 9.495 -7.99 9.495 -9 10 C-7.6834994 5.81113445 -4.97532335 0 0 0 Z " fill="#E6E6E6" transform="translate(93,309)"/>
<path d="M0 0 C0.33 0.99 0.66 1.98 1 3 C1.66 3.33 2.32 3.66 3 4 C1.42040347 5.29623379 -0.16383413 6.58681327 -1.75 7.875 C-2.63171875 8.59429687 -3.5134375 9.31359375 -4.421875 10.0546875 C-6.58176924 11.68442588 -8.539766 12.90784005 -11 14 C-10.61328125 13.55269531 -10.2265625 13.10539062 -9.828125 12.64453125 C-4.37700304 6.69203891 -4.37700304 6.69203891 0 0 Z " fill="#E2E2E2" transform="translate(247,272)"/>
<path d="M0 0 C6.64615385 1.47692308 6.64615385 1.47692308 8.4375 4.125 C8.7159375 5.053125 8.7159375 5.053125 9 6 C7.02 6.99 7.02 6.99 5 8 C2.98863724 5.44008376 1.37154504 2.95409701 0 0 Z " fill="#090909" transform="translate(245,234)"/>
<path d="M0 0 C0.66 0.33 1.32 0.66 2 1 C0.50902342 4.7952131 -1.75700849 6.61042731 -5 9 C-5 5 -5 5 -2.5 2.25 C-1.675 1.5075 -0.85 0.765 0 0 Z " fill="#1C1C1C" transform="translate(272,313)"/>
<path d="M0 0 C0.66 0.99 1.32 1.98 2 3 C1.34 3 0.68 3 0 3 C-0.103125 3.61875 -0.20625 4.2375 -0.3125 4.875 C-1 7 -1 7 -4 9 C-4.99 8.67 -5.98 8.34 -7 8 C-4.69 5.36 -2.38 2.72 0 0 Z " fill="#131313" transform="translate(250,305)"/>
<path d="M0 0 C0.66 0.33 1.32 0.66 2 1 C0.88333826 4.34998521 0.25305075 4.79340222 -2.5625 6.6875 C-3.20316406 7.12449219 -3.84382812 7.56148438 -4.50390625 8.01171875 C-4.99761719 8.33785156 -5.49132812 8.66398437 -6 9 C-6.66 8.67 -7.32 8.34 -8 8 C-5.36 5.36 -2.72 2.72 0 0 Z " fill="#1A1A1A" transform="translate(242,314)"/>
<path d="M0 0 C2.32472205 2.85306797 3.7508258 5.54074837 5 9 C4.01 9.495 4.01 9.495 3 10 C0.9375 7.8125 0.9375 7.8125 -1 5 C-0.75 2.1875 -0.75 2.1875 0 0 Z " fill="#E3E3E3" transform="translate(233,93)"/>
<path d="M0 0 C0.99 0.33 1.98 0.66 3 1 C1.02 3.31 -0.96 5.62 -3 8 C-3.33 6.68 -3.66 5.36 -4 4 C-3.34 4 -2.68 4 -2 4 C-1.34 2.68 -0.68 1.36 0 0 Z " fill="#EBEBEB" transform="translate(238,314)"/>
<path d="M0 0 C0.66 0.66 1.32 1.32 2 2 C1.34 2 0.68 2 0 2 C0 2.66 0 3.32 0 4 C0.66 4 1.32 4 2 4 C2.66 5.32 3.32 6.64 4 8 C3.01 8 2.02 8 1 8 C-1.1875 5.5 -1.1875 5.5 -3 3 C-2.01 2.01 -1.02 1.02 0 0 Z " fill="#0C0C0C" transform="translate(267,252)"/>
<path d="M0 0 C0.33 0 0.66 0 1 0 C1 2.31 1 4.62 1 7 C-0.65 7.66 -2.3 8.32 -4 9 C-2.94124926 5.59687262 -1.99097846 2.98646769 0 0 Z " fill="#E3E3E3" transform="translate(169,173)"/>
<path d="M0 0 C0.97608217 2.92824652 1.08226668 4.95613276 1 8 C-1 9 -3 10 -5 11 C-3.77472971 6.94718288 -2.30119506 3.55639236 0 0 Z " fill="#202020" transform="translate(196,171)"/>
<path d="M0 0 C1.32 1.65 2.64 3.3 4 5 C0.37673261 6.2077558 -0.64146369 5.54311128 -4 4 C-3 2 -3 2 0 0 Z " fill="#E2E2E2" transform="translate(274,164)"/>
<path d="M0 0 C1.32 0.33 2.64 0.66 4 1 C2.9024777 3.99324263 2.32317108 4.84610901 -0.625 6.25 C-1.40875 6.4975 -2.1925 6.745 -3 7 C-1.125 2.25 -1.125 2.25 0 0 Z " fill="#E2E2E2" transform="translate(219,88)"/>
<path d="M0 0 C0.66 0.99 1.32 1.98 2 3 C2.66 2.34 3.32 1.68 4 1 C4.33 2.65 4.66 4.3 5 6 C4.01 6.66 3.02 7.32 2 8 C0.93224776 6.03533587 -0.06553465 4.03144641 -1 2 C-0.67 1.34 -0.34 0.68 0 0 Z " fill="#131313" transform="translate(345,281)"/>
<path d="M0 0 C0.99 0 1.98 0 3 0 C2.82374165 2.37948772 2.30280227 3.70225849 0.59765625 5.37890625 C-0.90649092 6.62115486 -2.45129851 7.81376056 -4 9 C-2.80100302 5.9168649 -1.52299523 2.93720508 0 0 Z " fill="#212121" transform="translate(206,154)"/>
<path d="M0 0 C0.99 0 1.98 0 3 0 C4.35439668 2.70879335 4.06501451 5.00933268 4 8 C0 3.375 0 3.375 0 0 Z " fill="#EAEAEA" transform="translate(302,263)"/>
<path d="M0 0 C0.99 0.33 1.98 0.66 3 1 C2.6875 2.875 2.6875 2.875 2 5 C1.01 5.66 0.02 6.32 -1 7 C-1.625 5.1875 -1.625 5.1875 -2 3 C-1.34 2.01 -0.68 1.02 0 0 Z " fill="#151515" transform="translate(178,202)"/>
<path d="M0 0 C0.33 0.66 0.66 1.32 1 2 C2.64363134 2.72159424 4.31050386 3.39351421 6 4 C3.18185434 5.40907283 1.82722796 4.50872691 -1.125 3.5625 C-2.03507812 3.27503906 -2.94515625 2.98757812 -3.8828125 2.69140625 C-4.58148438 2.46324219 -5.28015625 2.23507813 -6 2 C-2.25 0 -2.25 0 0 0 Z " fill="#383838" transform="translate(282,189)"/>
<path d="M0 0 C0.625 1.875 0.625 1.875 1 4 C0.34 4.66 -0.32 5.32 -1 6 C-3.125 5.625 -3.125 5.625 -5 5 C-3.35 3.35 -1.7 1.7 0 0 Z " fill="#E8E8E8" transform="translate(271,318)"/>
<path d="M0 0 C0.33 0.99 0.66 1.98 1 3 C-0.40445835 5.2636564 -2.1967913 7.0208685 -4 9 C-4.66 8.34 -5.32 7.68 -6 7 C-4.02 4.69 -2.04 2.38 0 0 Z " fill="#DDDDDD" transform="translate(283,304)"/>
<path d="M0 0 C0.66 0.66 1.32 1.32 2 2 C-0.97 4.475 -0.97 4.475 -4 7 C-4 4 -4 4 -2 1.8125 C-1.34 1.214375 -0.68 0.61625 0 0 Z " fill="#161616" transform="translate(230,289)"/>
<path d="M0 0 C4 4.625 4 4.625 4 8 C3.34 8 2.68 8 2 8 C2 7.34 2 6.68 2 6 C1.34 6 0.68 6 0 6 C0 4.02 0 2.04 0 0 Z " fill="#E2E2E2" transform="translate(299,207)"/>
<path d="M0 0 C0.99 0 1.98 0 3 0 C1.79618552 2.49361571 0.54571278 4.68143083 -1 7 C-1.66 7 -2.32 7 -3 7 C-1.125 2.25 -1.125 2.25 0 0 Z " fill="#ECECEC" transform="translate(111,272)"/>
<path d="M0 0 C0.99 0.99 1.98 1.98 3 3 C2.01 4.485 2.01 4.485 1 6 C0.01 5.67 -0.98 5.34 -2 5 C-1.125 1.125 -1.125 1.125 0 0 Z " fill="#0D0D0D" transform="translate(171,162)"/>
</svg>
