<?xml version="1.0" encoding="UTF-8"?>
<svg version="1.1" xmlns="http://www.w3.org/2000/svg" width="339" height="339">
<path d="M0 0 C0.75196655 -0.00979385 1.50393311 -0.01958771 2.27868652 -0.02967834 C18.89585163 -0.20146431 34.82017062 -0.03068099 50.99609375 4.23828125 C51.83833496 4.45258789 52.68057617 4.66689453 53.54833984 4.88769531 C96.60399234 16.06443186 133.79410806 44.04303083 156.65234375 82.1796875 C170.20230513 105.37566646 179.94223852 132.12726373 180.234375 159.2421875 C180.24416885 159.99415405 180.25396271 160.74612061 180.26405334 161.52087402 C180.43583931 178.13803913 180.26505599 194.06235812 175.99609375 210.23828125 C175.78178711 211.08052246 175.56748047 211.92276367 175.34667969 212.79052734 C164.16994314 255.84617984 136.19134417 293.03629556 98.0546875 315.89453125 C74.85870854 329.44449263 48.10711127 339.18442602 20.9921875 339.4765625 C20.24022095 339.48635635 19.48825439 339.49615021 18.71350098 339.50624084 C2.09633587 339.67802681 -13.82798312 339.50724349 -30.00390625 335.23828125 C-30.84614746 335.02397461 -31.68838867 334.80966797 -32.55615234 334.58886719 C-75.61180484 323.41213064 -112.80192056 295.43353167 -135.66015625 257.296875 C-149.21011763 234.10089604 -158.95005102 207.34929877 -159.2421875 180.234375 C-159.25198135 179.48240845 -159.26177521 178.73044189 -159.27186584 177.95568848 C-159.44365181 161.33852337 -159.27286849 145.41420438 -155.00390625 129.23828125 C-154.78959961 128.39604004 -154.57529297 127.55379883 -154.35449219 126.68603516 C-143.17775564 83.63038266 -115.19915667 46.44026694 -77.0625 23.58203125 C-53.86652104 10.03206987 -27.11492377 0.29213648 0 0 Z " fill="#020202" transform="translate(159.00390625,-0.23828125)"/>
<path d="M0 0 C0.66 0 1.32 0 2 0 C2.28198242 0.51385254 2.56396484 1.02770508 2.85449219 1.55712891 C4.15023418 3.91461527 5.45008302 6.26981334 6.75 8.625 C7.1934375 9.43324219 7.636875 10.24148437 8.09375 11.07421875 C10.04577018 14.60507878 11.98304793 18.04993444 14.328125 21.3359375 C16 24 16 24 16 28 C16.66 28 17.32 28 18 28 C18.52207031 28.93457031 19.04414063 29.86914062 19.58203125 30.83203125 C24.37208098 39.38592793 29.22906835 47.89618549 34.19262695 56.35083008 C42 69.73181995 42 69.73181995 42 73 C42.66 73 43.32 73 44 73 C45.53691698 75.26461245 46.94017466 77.51291141 48.3125 79.875 C48.71621826 80.55812256 49.11993652 81.24124512 49.53588867 81.94506836 C52.20826377 86.5111595 54.65988331 91.14520666 56.9375 95.921875 C57.93087493 97.86479949 59.03146142 99.55107196 60.3125 101.3125 C62.13260922 104.21119247 62.39424465 105.64892051 62 109 C60.515 109.495 60.515 109.495 59 110 C57.35334328 112.34963084 57.35334328 112.34963084 55.8203125 115.28515625 C55.22089844 116.37376953 54.62148437 117.46238281 54.00390625 118.58398438 C53.38386719 119.73189453 52.76382813 120.87980469 52.125 122.0625 C50.90027548 124.30439047 49.67374928 126.54529775 48.4453125 128.78515625 C47.86040039 129.85491699 47.27548828 130.92467773 46.67285156 132.02685547 C44.87896779 135.21510949 42.96966371 138.29550444 40.94091797 141.33862305 C39.31616401 144.20744782 39 146.7492611 39 150 C39.98028616 151.34789347 40.98287037 152.6796875 42 154 C43.0853464 156.48991234 44.00446567 159.01220616 44.9375 161.5625 C45.90060401 164.05306364 45.90060401 164.05306364 47.625 166.0625 C49 168 49 168 49 172 C57.58 172 66.16 172 75 172 C70.00848897 162.84810911 70.00848897 162.84810911 64.8828125 153.77734375 C64 152 64 152 64 150 C63.34 150 62.68 150 62 150 C62.4426811 144.10386453 65.03741479 140.03504201 68.0625 135.125 C68.53494141 134.34125 69.00738281 133.5575 69.49414062 132.75 C70.65436287 130.82801567 71.82305776 128.91177465 73 127 C74.485 127.495 74.485 127.495 76 128 C76.87890625 129.8125 76.87890625 129.8125 77.5625 132 C78.20681284 134.14541038 78.20681284 134.14541038 79 136 C79.66 136.33 80.32 136.66 81 137 C81 138.32 81 139.64 81 141 C81.66 141 82.32 141 83 141 C83.103125 141.61875 83.20625 142.2375 83.3125 142.875 C83.87525373 145.36526484 83.87525373 145.36526484 87 147 C88.12311585 149.45121102 88.96135347 151.94418539 89.83984375 154.4921875 C91.15324433 157.33125543 92.77350107 158.82863343 95 161 C96.4921875 163.4453125 96.4921875 163.4453125 97.875 166.125 C100.3461306 170.83401673 103.02432277 175.33529211 105.8984375 179.80859375 C107 182 107 182 107 186 C107.66 186 108.32 186 109 186 C109.99 189.465 109.99 189.465 111 193 C101.55121399 193.13900527 92.10277972 193.24562251 82.65319443 193.31087303 C78.26533655 193.34219003 73.878178 193.38466795 69.49072266 193.45263672 C65.25667704 193.51781861 61.02330408 193.55370327 56.78879547 193.56926346 C55.17316342 193.58035216 53.55756832 193.60200674 51.9422226 193.63438034 C49.67909663 193.67793338 47.41875089 193.68393537 45.15527344 193.68115234 C43.22334137 193.70113785 43.22334137 193.70113785 41.25238037 193.7215271 C38 193 38 193 35.64385986 190.16714478 C33.91551808 186.8372328 32.46249024 183.45443897 31 180 C29.11304761 176.45307769 27.07236613 172.99399851 25.05273438 169.52148438 C22 164.20300954 22 164.20300954 22 162 C21.01 161.67 20.02 161.34 19 161 C17.2470538 157.42668659 15.78230674 153.91153372 15 150 C14.34 150 13.68 150 13 150 C13.53585693 145.33366944 14.79264691 142.11496173 17.16796875 138.078125 C17.81443359 136.96953125 18.46089844 135.8609375 19.12695312 134.71875 C19.81362173 133.56239289 20.50047155 132.40614336 21.1875 131.25 C21.84814453 130.12078125 22.50878906 128.9915625 23.18945312 127.828125 C25.69633358 123.55182744 28.21147656 119.28309523 30.80688477 115.05981445 C31.35014404 114.17511475 31.89340332 113.29041504 32.453125 112.37890625 C32.93297852 111.60877197 33.41283203 110.8386377 33.90722656 110.04516602 C35.44684905 107.16370543 35.66707308 105.18712693 35 102 C33.57378316 99.28873616 33.57378316 99.28873616 32 97 C32 96.34 32 95.68 32 95 C31.01 94.67 30.02 94.34 29 94 C29 92.68 29 91.36 29 90 C28.34 90 27.68 90 27 90 C23 83.5 23 83.5 23 79 C22.34 79 21.68 79 21 79 C19.39096865 76.68299485 18.15147707 74.71410621 17.5625 71.9375 C17.13724406 69.83483487 17.13724406 69.83483487 15.1875 68.375 C12.40746817 65.35667973 11.43179955 62.2867464 10.015625 58.4765625 C8.71460722 55.30408068 6.95978328 52.7996904 5 50 C5 49.34 5 48.68 5 48 C4.34 48 3.68 48 3 48 C2.87625 47.13375 2.87625 47.13375 2.75 46.25 C2.15878604 43.87779295 2.15878604 43.87779295 0.1875 42.3125 C-2.43090658 39.54447019 -3.47976085 36.86061013 -4.91796875 33.37109375 C-6.3019889 30.33824094 -8.09705689 27.71521352 -10.046875 25.01953125 C-11.45023206 22.04602469 -11.448804 20.27822056 -11 17 C-9.60625996 14.05705024 -7.867089 11.39315255 -6.0625 8.6875 C-5.59392578 7.95982422 -5.12535156 7.23214844 -4.64257812 6.48242188 C-1.25979663 1.25979663 -1.25979663 1.25979663 0 0 Z " fill="#F3F3F3" transform="translate(169,14)"/>
<path d="M0 0 C2.25403819 0.00157541 4.50848102 0.05764918 6.76025391 0.15869141 C8.54539902 0.17991562 8.54539902 0.17991562 10.36660767 0.2015686 C14.15926149 0.2574496 17.94595614 0.38288254 21.73681641 0.51025391 C24.31094969 0.56042248 26.88517581 0.60604844 29.45947266 0.64697266 C35.76227917 0.75709001 42.06162222 0.92430029 48.36181641 1.13525391 C50.28586653 4.443516 52.19965871 7.75760609 54.11181641 11.07275391 C54.65064453 11.99894531 55.18947266 12.92513672 55.74462891 13.87939453 C59.88939493 21.08218915 63.36271269 28.38756932 66.36181641 36.13525391 C67.02181641 36.13525391 67.68181641 36.13525391 68.36181641 36.13525391 C68.44431641 36.75400391 68.52681641 37.37275391 68.61181641 38.01025391 C69.16046667 40.26775532 69.16046667 40.26775532 71.15099525 41.25444698 C73.46537239 42.17651135 75.00927788 42.37482715 77.48495483 42.35316467 C78.29795547 42.35132172 79.11095612 42.34947876 79.94859314 42.34757996 C80.8318074 42.33560074 81.71502167 42.32362152 82.625 42.3112793 C83.56204269 42.30686829 84.49908539 42.30245728 85.46452332 42.2979126 C87.49815438 42.28807052 89.53176906 42.27421372 91.56534958 42.25682259 C95.88922271 42.22446033 100.21285524 42.22685318 104.53682899 42.22711086 C112.58686781 42.22696709 120.63629683 42.21172331 128.68603516 42.13891602 C134.28666454 42.08959085 139.88587262 42.08395247 145.48665237 42.10705376 C147.61972431 42.10762265 149.75286528 42.09192691 151.8856926 42.059618 C154.87203255 42.01621339 157.85340158 42.02852475 160.83984375 42.0534668 C162.15859245 42.01424355 162.15859245 42.01424355 163.50398254 41.97422791 C167.36539191 42.0586399 169.4946136 42.2615023 172.28264236 45.07058525 C175.06143324 49.02439846 176.36181641 51.20796107 176.36181641 56.13525391 C177.02181641 56.13525391 177.68181641 56.13525391 178.36181641 56.13525391 C181.36181641 61.88525391 181.36181641 61.88525391 181.36181641 64.13525391 C141.10181641 64.13525391 100.84181641 64.13525391 59.36181641 64.13525391 C59.03181641 63.14525391 58.70181641 62.15525391 58.36181641 61.13525391 C56.87681641 60.64025391 56.87681641 60.64025391 55.36181641 60.13525391 C55.36181641 58.81525391 55.36181641 57.49525391 55.36181641 56.13525391 C54.70181641 56.13525391 54.04181641 56.13525391 53.36181641 56.13525391 C49.74124269 50.0177328 46.96770653 43.75020575 44.36181641 37.13525391 C43.70181641 37.13525391 43.04181641 37.13525391 42.36181641 37.13525391 C39.75203453 33.39078426 38.10250065 29.32872049 36.36181641 25.13525391 C35.86681641 24.14525391 35.86681641 24.14525391 35.36181641 23.13525391 C25.79181641 22.80525391 16.22181641 22.47525391 6.36181641 22.13525391 C5.70181641 24.11525391 5.04181641 26.09525391 4.36181641 28.13525391 C3.22347187 30.22528602 2.03438028 32.28837938 0.79931641 34.32275391 C-1.76881677 38.56699019 -1.76881677 38.56699019 -3.63818359 43.13525391 C5.27181641 43.13525391 14.18181641 43.13525391 23.36181641 43.13525391 C25.34181641 47.09525391 27.32181641 51.05525391 29.36181641 55.13525391 C30.35181641 56.12525391 31.34181641 57.11525391 32.36181641 58.13525391 C32.85681641 61.10525391 32.85681641 61.10525391 33.36181641 64.13525391 C8.94181641 64.13525391 -15.47818359 64.13525391 -40.63818359 64.13525391 C-39.74178565 60.54966215 -38.75580072 58.28919729 -36.97021484 55.11962891 C-36.41333984 54.12713135 -35.85646484 53.13463379 -35.28271484 52.11206055 C-34.67814453 51.04721436 -34.07357422 49.98236816 -33.45068359 48.88525391 C-32.82935547 47.78366943 -32.20802734 46.68208496 -31.56787109 45.54711914 C-25.04052635 34.01016864 -18.39856908 22.53725344 -11.63818359 11.13525391 C-11.27630951 10.30199585 -10.91443542 9.46873779 -10.54159546 8.61022949 C-7.93326661 3.20348435 -6.2049377 0.53924745 0 0 Z " fill="#F5F5F5" transform="translate(123.63818359375,184.86474609375)"/>
<path d="M0 0 C3.51293913 1.17097971 3.65894933 1.66734501 5.3125 4.8046875 C5.74272461 5.60648438 6.17294922 6.40828125 6.61621094 7.234375 C7.07286133 8.10578125 7.52951172 8.9771875 8 9.875 C8.98250981 11.70673085 9.96693491 13.53743546 10.953125 15.3671875 C11.45650391 16.30401367 11.95988281 17.24083984 12.47851562 18.20605469 C14.82539809 22.51570214 17.27989024 26.76011812 19.75 31 C20.20616699 31.78632812 20.66233398 32.57265625 21.13232422 33.3828125 C23.13568034 36.8291963 25.15277116 40.26572997 27.2109375 43.6796875 C27.84257812 44.73414063 28.47421875 45.78859375 29.125 46.875 C29.66382813 47.75929687 30.20265625 48.64359375 30.7578125 49.5546875 C32.03143296 52.06187746 32.5928071 54.22910198 33 57 C33.66 57 34.32 57 35 57 C37.19497555 60.29246332 37.4442882 61.18552882 37 65 C35.78173828 67.5769043 35.78173828 67.5769043 34.0703125 70.32421875 C33.43867188 71.35482422 32.80703125 72.38542969 32.15625 73.44726562 C31.4859375 74.51654297 30.815625 75.58582031 30.125 76.6875 C28.83251465 78.77262178 27.54353482 80.85991998 26.2578125 82.94921875 C25.2064209 84.58491821 25.2064209 84.58491821 24.13378906 86.25366211 C22.44679872 89.02236967 21.27037901 91.78993173 20.13964844 94.82641602 C18.14884986 99.80222692 16.23116275 104.53369354 12 108 C4.13024104 110.66317275 -4.87600447 109.24604813 -13 108.5625 C-27.05823414 106.5727766 -27.05823414 106.5727766 -39.94689941 110.49234009 C-43.31106848 114.46597212 -45.27867537 118.99843857 -47.13354492 123.8241272 C-48.32518312 126.81661141 -49.90843122 129.51693436 -51.546875 132.28515625 C-52.61589559 134.21020936 -53.68359722 136.13599549 -54.75 138.0625 C-59.534884 146.65820706 -64.40498672 155.19748001 -69.375 163.6875 C-69.95822021 164.68434814 -70.54144043 165.68119629 -71.14233398 166.70825195 C-73.21693324 170.25185162 -75.29290717 173.79464226 -77.37060547 177.33642578 C-78.52283629 179.30480136 -79.66879241 181.27666411 -80.8125 183.25 C-81.41707031 184.28640625 -82.02164063 185.3228125 -82.64453125 186.390625 C-84.19791575 189.13437641 -84.19791575 189.13437641 -85 193 C-92.59 193 -100.18 193 -108 193 C-106.87496156 183.99969246 -106.87496156 183.99969246 -103.859375 178.8671875 C-103.20678711 177.74127197 -102.55419922 176.61535645 -101.88183594 175.45532227 C-101.17162237 174.26164437 -100.46100182 173.06820855 -99.75 171.875 C-99.02524687 170.63729271 -98.30162617 169.39892165 -97.57910156 168.15991211 C-96.11127761 165.64833349 -94.6354456 163.14174646 -93.15234375 160.63916016 C-91.14614127 157.25285269 -89.1643293 153.85277131 -87.1875 150.44921875 C-86.042498 148.48649395 -84.89671137 146.5242266 -83.75 144.5625 C-83.22631836 143.66450684 -82.70263672 142.76651367 -82.16308594 141.84130859 C-80.18881081 138.49848716 -78.2870422 135.35157506 -75.828125 132.33984375 C-74.02636667 130.03374709 -73.03019436 127.84650885 -71.94726562 125.14648438 C-69.75068191 120.16907096 -66.9187448 115.48505143 -64.25 110.75 C-63.65445313 109.68136719 -63.05890625 108.61273438 -62.4453125 107.51171875 C-61.24226693 105.36863108 -60.00770618 103.24293287 -58.74243164 101.13598633 C-56.91987294 98.06765512 -56.91987294 98.06765512 -55.88061523 94.77612305 C-54.34439048 91.03400618 -53.33060954 89.35607083 -50 87 C-41.73228745 85.12799765 -32.96157232 85.97547342 -24.5625 86.3125 C-22.18565921 86.36770008 -19.80869632 86.41788613 -17.43164062 86.46289062 C-11.61842435 86.58387799 -5.80977507 86.76768179 0 87 C0.2150972 85.82588562 0.2150972 85.82588562 0.43453979 84.62805176 C1.01633039 81.92410234 1.83616556 80.28007972 3.3203125 77.96875 C3.77277344 77.24042969 4.22523438 76.51210937 4.69140625 75.76171875 C5.64938111 74.25036332 6.6129619 72.74254708 7.58203125 71.23828125 C10.29267868 67.01981911 10.29267868 67.01981911 10.921875 62.1796875 C9.83245519 59.60385592 8.48692297 57.22256346 7.0390625 54.83203125 C6 53 6 53 4.5 49.3125 C3.0344584 46.07609563 1.66364377 44.29624463 -1 42 C-1.35384766 42.98613281 -1.35384766 42.98613281 -1.71484375 43.9921875 C-3.3764999 47.88116997 -5.45237158 51.46477724 -7.5625 55.125 C-8.37873501 56.54287303 -9.19263565 57.96209312 -10.00390625 59.3828125 C-10.54253296 60.31697998 -10.54253296 60.31697998 -11.09204102 61.27001953 C-12.14195682 63.15775848 -12.14195682 63.15775848 -13 66 C-20.92 66 -28.84 66 -37 66 C-35.57181199 61.71543596 -34.48701477 58.8089992 -32.26953125 55.078125 C-31.44678711 53.68231201 -31.44678711 53.68231201 -30.60742188 52.25830078 C-30.01509766 51.26556152 -29.42277344 50.27282227 -28.8125 49.25 C-27.54745849 47.1071949 -26.28316237 44.96394962 -25.01953125 42.8203125 C-24.36162598 41.70688477 -23.7037207 40.59345703 -23.02587891 39.44628906 C-19.01818319 32.62866641 -15.09071722 25.76463187 -11.15161133 18.90722656 C-7.50075166 12.56375128 -3.79088304 6.26085858 0 0 Z " fill="#F5F5F5" transform="translate(144,56)"/>
<path d="M0 0 C0.495 1.98 0.495 1.98 1 4 C-1.36599065 5.18299532 -2.8383716 5.14290618 -5.47802734 5.17358398 C-6.86989761 5.19381874 -6.86989761 5.19381874 -8.28988647 5.21446228 C-9.29508331 5.22490067 -10.30028015 5.23533905 -11.3359375 5.24609375 C-13.45312915 5.27903106 -15.57031655 5.31224273 -17.6875 5.34570312 C-21.03414997 5.39314022 -24.38078254 5.4375678 -27.72753906 5.47680664 C-30.95135603 5.51649828 -34.17481648 5.5680504 -37.3984375 5.62109375 C-38.39958588 5.6295079 -39.40073425 5.63792206 -40.43222046 5.64659119 C-41.36643829 5.66323318 -42.30065613 5.67987518 -43.26318359 5.69702148 C-44.08321869 5.70732895 -44.90325378 5.71763641 -45.74813843 5.72825623 C-48.21074196 6.02543132 -49.86306311 6.7696395 -52 8 C-51.34 6.35 -50.68 4.7 -50 3 C-33.5 3 -17 3 0 3 C0 2.01 0 1.02 0 0 Z " fill="#BEBEBE" transform="translate(144,140)"/>
<path d="M0 0 C1 2 1 2 0 6 C7.26 6 14.52 6 22 6 C22 6.33 22 6.66 22 7 C13.75 7 5.5 7 -3 7 C-2 3 -2 3 0 0 Z " fill="#7A7A7A" transform="translate(36,243)"/>
</svg>
